<svg preserveAspectRatio="none" overflow="visible" style="display: block;" width="20" height="20" viewBox="0 0 20 20" fill="none" xmlns="http://www.w3.org/2000/svg">
<g id="Projects">
<g id="Union">
<path d="M6.42979 2.44666C6.42979 2.00542 6.78748 1.64772 7.22873 1.64772H12.8416C13.2829 1.64772 13.6406 2.00542 13.6406 2.44666C13.6406 2.88791 13.2829 3.24561 12.8416 3.24561H10.8341V6.85964H15.6278C16.069 6.85964 16.4267 7.21734 16.4267 7.65858V11.9104L16.9695 11.3677C17.2815 11.0557 17.7873 11.0557 18.0993 11.3677C18.4113 11.6797 18.4113 12.1856 18.0993 12.4976L16.1674 14.4295C15.8554 14.7415 15.3495 14.7415 15.0375 14.4295L13.1056 12.4976C12.7936 12.1856 12.7936 11.6797 13.1056 11.3677C13.4176 11.0557 13.9235 11.0557 14.2355 11.3677L14.8288 11.961V8.45753H5.24151V11.8907L5.76453 11.3677C6.07654 11.0557 6.5824 11.0557 6.89441 11.3677C7.20642 11.6797 7.20642 12.1856 6.89441 12.4976L4.96248 14.4295C4.65047 14.7415 4.14461 14.7415 3.8326 14.4295L1.90067 12.4976C1.58866 12.1856 1.58866 11.6797 1.90067 11.3677C2.21268 11.0557 2.71854 11.0557 3.03055 11.3677L3.64362 11.9808V7.65858C3.64362 7.21734 4.00132 6.85964 4.44256 6.85964H9.23623V3.24561H7.22873C6.78748 3.24561 6.42979 2.88791 6.42979 2.44666Z" fill="#364658"/>
<path d="M1.80599 16.7427C1.80599 16.3014 2.16368 15.9437 2.60493 15.9437H6.28021C6.72145 15.9437 7.07915 16.3014 7.07915 16.7427V17.5533C7.07915 17.9946 6.72145 18.3523 6.28021 18.3523H2.60493C2.16368 18.3523 1.80599 17.9946 1.80599 17.5533V16.7427Z" fill="#364658"/>
<path d="M13.5782 15.9437C13.137 15.9437 12.7793 16.3014 12.7793 16.7427V17.5533C12.7793 17.9946 13.137 18.3523 13.5782 18.3523H17.2535C17.6948 18.3523 18.0525 17.9946 18.0525 17.5533V16.7427C18.0525 16.3014 17.6948 15.9437 17.2535 15.9437H13.5782Z" fill="#364658"/>
</g>
</g>
</svg>
